<svg xmlns="http://www.w3.org/2000/svg" xmlns:xlink="http://www.w3.org/1999/xlink" contentStyleType="text/css" data-diagram-type="CLASS" height="1395px" preserveAspectRatio="none" style="width:664px;height:1395px;background:#FFFFFF;" version="1.1" viewBox="0 0 664 1395" width="664px" zoomAndPan="magnify"><?plantuml 1.2026.7beta1?><defs/><g><!--class Entreprise--><g class="entity" data-qualified-name="Entreprise" data-source-line="3" id="ent0001"><rect fill="#FFFFFF" height="321.0469" rx="2.5" ry="2.5" style="stroke:#000000;stroke-width:1;" width="216.8076" x="12" y="792.09"/><ellipse cx="80.6455" cy="806.09" fill="#FFFFFF" rx="9" ry="9" style="stroke:#000000;stroke-width:1;"/><path d="M83.6143,811.7306 Q83.0361,812.0275 82.3955,812.1681 Q81.7549,812.3244 81.0518,812.3244 Q78.5518,812.3244 77.2236,810.6837 Q75.9111,809.0275 75.9111,805.9025 Q75.9111,802.7775 77.2236,801.1212 Q78.5518,799.465 81.0518,799.465 Q81.7549,799.465 82.3955,799.6212 Q83.0518,799.7775 83.6143,800.0744 L83.6143,802.7931 Q82.9893,802.215 82.3955,801.9494 Q81.8018,801.6681 81.1768,801.6681 Q79.833,801.6681 79.1455,802.7462 Q78.458,803.8087 78.458,805.9025 Q78.458,807.9962 79.1455,809.0744 Q79.833,810.1369 81.1768,810.1369 Q81.8018,810.1369 82.3955,809.8712 Q82.9893,809.59 83.6143,809.0119 L83.6143,811.7306 Z " fill="#000000"/><text fill="#000000" font-family="Verdana" font-size="14" lengthAdjust="spacing" textLength="72.0166" x="98.1455" y="810.9367">Entreprise</text><line style="stroke:#000000;stroke-width:1;" x1="13" x2="227.8076" y1="820.09" y2="820.09"/><g data-visibility-modifier="PRIVATE_FIELD"><rect fill="none" height="6" style="stroke:#000000;stroke-width:1;" width="6" x="20" y="830.7384"/></g><text fill="#000000" font-family="Verdana" font-size="14" lengthAdjust="spacing" textLength="40.1953" x="30" y="837.0851">id: int</text><g data-visibility-modifier="PRIVATE_FIELD"><rect fill="none" height="6" style="stroke:#000000;stroke-width:1;" width="6" x="20" y="847.0353"/></g><text fill="#000000" font-family="Verdana" font-size="14" lengthAdjust="spacing" textLength="58.7822" x="30" y="853.382">nom: str</text><g data-visibility-modifier="PRIVATE_FIELD"><rect fill="none" height="6" style="stroke:#000000;stroke-width:1;" width="6" x="20" y="863.3322"/></g><text fill="#000000" font-family="Verdana" font-size="14" lengthAdjust="spacing" textLength="60.2793" x="30" y="869.6789">sigle: str</text><g data-visibility-modifier="PRIVATE_FIELD"><rect fill="none" height="6" style="stroke:#000000;stroke-width:1;" width="6" x="20" y="879.6291"/></g><text fill="#000000" font-family="Verdana" font-size="14" lengthAdjust="spacing" textLength="82.7422" x="30" y="885.9757">adresse: str</text><g data-visibility-modifier="PRIVATE_FIELD"><rect fill="none" height="6" style="stroke:#000000;stroke-width:1;" width="6" x="20" y="895.9259"/></g><text fill="#000000" font-family="Verdana" font-size="14" lengthAdjust="spacing" textLength="56.2734" x="30" y="902.2726">ville: str</text><g data-visibility-modifier="PRIVATE_FIELD"><rect fill="none" height="6" style="stroke:#000000;stroke-width:1;" width="6" x="20" y="912.2228"/></g><text fill="#000000" font-family="Verdana" font-size="14" lengthAdjust="spacing" textLength="60.751" x="30" y="918.5695">pays: str</text><g data-visibility-modifier="PRIVATE_FIELD"><rect fill="none" height="6" style="stroke:#000000;stroke-width:1;" width="6" x="20" y="928.5197"/></g><text fill="#000000" font-family="Verdana" font-size="14" lengthAdjust="spacing" textLength="107.0303" x="30" y="934.8664">telephone1: str</text><g data-visibility-modifier="PRIVATE_FIELD"><rect fill="none" height="6" style="stroke:#000000;stroke-width:1;" width="6" x="20" y="944.8166"/></g><text fill="#000000" font-family="Verdana" font-size="14" lengthAdjust="spacing" textLength="107.0303" x="30" y="951.1632">telephone2: str</text><g data-visibility-modifier="PRIVATE_FIELD"><rect fill="none" height="6" style="stroke:#000000;stroke-width:1;" width="6" x="20" y="961.1134"/></g><text fill="#000000" font-family="Verdana" font-size="14" lengthAdjust="spacing" textLength="66.3154" x="30" y="967.4601">email: str</text><g data-visibility-modifier="PRIVATE_FIELD"><rect fill="none" height="6" style="stroke:#000000;stroke-width:1;" width="6" x="20" y="977.4103"/></g><text fill="#000000" font-family="Verdana" font-size="14" lengthAdjust="spacing" textLength="62.4941" x="30" y="983.757">rccm: str</text><g data-visibility-modifier="PRIVATE_FIELD"><rect fill="none" height="6" style="stroke:#000000;stroke-width:1;" width="6" x="20" y="993.7072"/></g><text fill="#000000" font-family="Verdana" font-size="14" lengthAdjust="spacing" textLength="45.3975" x="30" y="1000.0539">nif: str</text><g data-visibility-modifier="PRIVATE_FIELD"><rect fill="none" height="6" style="stroke:#000000;stroke-width:1;" width="6" x="20" y="1010.0041"/></g><text fill="#000000" font-family="Verdana" font-size="14" lengthAdjust="spacing" textLength="101.1992" x="30" y="1016.3507">tva_taux: float</text><g data-visibility-modifier="PRIVATE_FIELD"><rect fill="none" height="6" style="stroke:#000000;stroke-width:1;" width="6" x="20" y="1026.3009"/></g><text fill="#000000" font-family="Verdana" font-size="14" lengthAdjust="spacing" textLength="96.4414" x="30" y="1032.6476">logo_path: str</text><g data-visibility-modifier="PRIVATE_FIELD"><rect fill="none" height="6" style="stroke:#000000;stroke-width:1;" width="6" x="20" y="1042.5978"/></g><text fill="#000000" font-family="Verdana" font-size="14" lengthAdjust="spacing" textLength="129.1582" x="30" y="1048.9445">conditions_def: str</text><g data-visibility-modifier="PRIVATE_FIELD"><rect fill="none" height="6" style="stroke:#000000;stroke-width:1;" width="6" x="20" y="1058.8947"/></g><text fill="#000000" font-family="Verdana" font-size="14" lengthAdjust="spacing" textLength="90.9932" x="30" y="1065.2414">delai_def: str</text><line style="stroke:#000000;stroke-width:1;" x1="13" x2="227.8076" y1="1072.5431" y2="1072.5431"/><g data-visibility-modifier="PUBLIC_METHOD"><ellipse cx="23" cy="1086.1916" fill="#FFFFFF" rx="3" ry="3" style="stroke:#000000;stroke-width:1;"/></g><text fill="#000000" font-family="Verdana" font-size="14" lengthAdjust="spacing" textLength="147.8271" x="30" y="1089.5382">get_entreprise(): dict</text><g data-visibility-modifier="PUBLIC_METHOD"><ellipse cx="23" cy="1102.4884" fill="#FFFFFF" rx="3" ry="3" style="stroke:#000000;stroke-width:1;"/></g><text fill="#000000" font-family="Verdana" font-size="14" lengthAdjust="spacing" textLength="192.8076" x="30" y="1105.8351">save_entreprise(data): void</text></g><!--class Client--><g class="entity" data-qualified-name="Client" data-source-line="23" id="ent0002"><rect fill="#FFFFFF" height="255.8594" rx="2.5" ry="2.5" style="stroke:#000000;stroke-width:1;" width="183.4756" x="146.67" y="12"/><ellipse cx="214.3927" cy="26" fill="#FFFFFF" rx="9" ry="9" style="stroke:#000000;stroke-width:1;"/><path d="M217.3614,31.6406 Q216.7833,31.9375 216.1427,32.0781 Q215.502,32.2344 214.7989,32.2344 Q212.2989,32.2344 210.9708,30.5938 Q209.6583,28.9375 209.6583,25.8125 Q209.6583,22.6875 210.9708,21.0313 Q212.2989,19.375 214.7989,19.375 Q215.502,19.375 216.1427,19.5313 Q216.7989,19.6875 217.3614,19.9844 L217.3614,22.7031 Q216.7364,22.125 216.1427,21.8594 Q215.5489,21.5781 214.9239,21.5781 Q213.5802,21.5781 212.8927,22.6563 Q212.2052,23.7188 212.2052,25.8125 Q212.2052,27.9063 212.8927,28.9844 Q213.5802,30.0469 214.9239,30.0469 Q215.5489,30.0469 216.1427,29.7813 Q216.7364,29.5 217.3614,28.9219 L217.3614,31.6406 Z " fill="#000000"/><text fill="#000000" font-family="Verdana" font-size="14" lengthAdjust="spacing" textLength="40.5303" x="231.8927" y="30.8467">Client</text><line style="stroke:#000000;stroke-width:1;" x1="147.67" x2="329.1456" y1="40" y2="40"/><g data-visibility-modifier="PRIVATE_FIELD"><rect fill="none" height="6" style="stroke:#000000;stroke-width:1;" width="6" x="154.67" y="50.6484"/></g><text fill="#000000" font-family="Verdana" font-size="14" lengthAdjust="spacing" textLength="40.1953" x="164.67" y="56.9951">id: int</text><g data-visibility-modifier="PRIVATE_FIELD"><rect fill="none" height="6" style="stroke:#000000;stroke-width:1;" width="6" x="154.67" y="66.9453"/></g><text fill="#000000" font-family="Verdana" font-size="14" lengthAdjust="spacing" textLength="58.7822" x="164.67" y="73.292">nom: str</text><g data-visibility-modifier="PRIVATE_FIELD"><rect fill="none" height="6" style="stroke:#000000;stroke-width:1;" width="6" x="154.67" y="83.2422"/></g><text fill="#000000" font-family="Verdana" font-size="14" lengthAdjust="spacing" textLength="82.7422" x="164.67" y="89.5889">adresse: str</text><g data-visibility-modifier="PRIVATE_FIELD"><rect fill="none" height="6" style="stroke:#000000;stroke-width:1;" width="6" x="154.67" y="99.5391"/></g><text fill="#000000" font-family="Verdana" font-size="14" lengthAdjust="spacing" textLength="56.2734" x="164.67" y="105.8857">ville: str</text><g data-visibility-modifier="PRIVATE_FIELD"><rect fill="none" height="6" style="stroke:#000000;stroke-width:1;" width="6" x="154.67" y="115.8359"/></g><text fill="#000000" font-family="Verdana" font-size="14" lengthAdjust="spacing" textLength="98.123" x="164.67" y="122.1826">telephone: str</text><g data-visibility-modifier="PRIVATE_FIELD"><rect fill="none" height="6" style="stroke:#000000;stroke-width:1;" width="6" x="154.67" y="132.1328"/></g><text fill="#000000" font-family="Verdana" font-size="14" lengthAdjust="spacing" textLength="66.3154" x="164.67" y="138.4795">email: str</text><g data-visibility-modifier="PRIVATE_FIELD"><rect fill="none" height="6" style="stroke:#000000;stroke-width:1;" width="6" x="154.67" y="148.4297"/></g><text fill="#000000" font-family="Verdana" font-size="14" lengthAdjust="spacing" textLength="104.4326" x="164.67" y="154.7764">type_client: str</text><g data-visibility-modifier="PRIVATE_FIELD"><rect fill="none" height="6" style="stroke:#000000;stroke-width:1;" width="6" x="154.67" y="164.7266"/></g><text fill="#000000" font-family="Verdana" font-size="14" lengthAdjust="spacing" textLength="45.3975" x="164.67" y="171.0732">nif: str</text><g data-visibility-modifier="PRIVATE_FIELD"><rect fill="none" height="6" style="stroke:#000000;stroke-width:1;" width="6" x="154.67" y="181.0234"/></g><text fill="#000000" font-family="Verdana" font-size="14" lengthAdjust="spacing" textLength="102.4092" x="164.67" y="187.3701">created_at: str</text><line style="stroke:#000000;stroke-width:1;" x1="147.67" x2="329.1456" y1="194.6719" y2="194.6719"/><g data-visibility-modifier="PUBLIC_METHOD"><ellipse cx="157.67" cy="208.3203" fill="#FFFFFF" rx="3" ry="3" style="stroke:#000000;stroke-width:1;"/></g><text fill="#000000" font-family="Verdana" font-size="14" lengthAdjust="spacing" textLength="116.3887" x="164.67" y="211.667">get_clients(): list</text><g data-visibility-modifier="PUBLIC_METHOD"><ellipse cx="157.67" cy="224.6172" fill="#FFFFFF" rx="3" ry="3" style="stroke:#000000;stroke-width:1;"/></g><text fill="#000000" font-family="Verdana" font-size="14" lengthAdjust="spacing" textLength="127.2715" x="164.67" y="227.9639">get_client(id): dict</text><g data-visibility-modifier="PUBLIC_METHOD"><ellipse cx="157.67" cy="240.9141" fill="#FFFFFF" rx="3" ry="3" style="stroke:#000000;stroke-width:1;"/></g><text fill="#000000" font-family="Verdana" font-size="14" lengthAdjust="spacing" textLength="159.4756" x="164.67" y="244.2607">save_client(data): void</text><g data-visibility-modifier="PUBLIC_METHOD"><ellipse cx="157.67" cy="257.2109" fill="#FFFFFF" rx="3" ry="3" style="stroke:#000000;stroke-width:1;"/></g><text fill="#000000" font-family="Verdana" font-size="14" lengthAdjust="spacing" textLength="152.0518" x="164.67" y="260.5576">delete_client(id): void</text></g><!--class Devis--><g class="entity" data-qualified-name="Devis" data-source-line="39" id="ent0003"><rect fill="#FFFFFF" height="386.2344" rx="2.5" ry="2.5" style="stroke:#000000;stroke-width:1;" width="220.9639" x="127.92" y="328.86"/><ellipse cx="215.2208" cy="342.86" fill="#FFFFFF" rx="9" ry="9" style="stroke:#000000;stroke-width:1;"/><path d="M218.1895,348.5006 Q217.6114,348.7975 216.9708,348.9381 Q216.3302,349.0944 215.627,349.0944 Q213.127,349.0944 211.7989,347.4537 Q210.4864,345.7975 210.4864,342.6725 Q210.4864,339.5475 211.7989,337.8912 Q213.127,336.235 215.627,336.235 Q216.3302,336.235 216.9708,336.3912 Q217.627,336.5475 218.1895,336.8444 L218.1895,339.5631 Q217.5645,338.985 216.9708,338.7194 Q216.377,338.4381 215.752,338.4381 Q214.4083,338.4381 213.7208,339.5162 Q213.0333,340.5787 213.0333,342.6725 Q213.0333,344.7662 213.7208,345.8444 Q214.4083,346.9069 215.752,346.9069 Q216.377,346.9069 216.9708,346.6412 Q217.5645,346.36 218.1895,345.7819 L218.1895,348.5006 Z " fill="#000000"/><text fill="#000000" font-family="Verdana" font-size="14" lengthAdjust="spacing" textLength="38.8623" x="232.7208" y="347.7067">Devis</text><line style="stroke:#000000;stroke-width:1;" x1="128.92" x2="347.8839" y1="356.86" y2="356.86"/><g data-visibility-modifier="PRIVATE_FIELD"><rect fill="none" height="6" style="stroke:#000000;stroke-width:1;" width="6" x="135.92" y="367.5084"/></g><text fill="#000000" font-family="Verdana" font-size="14" lengthAdjust="spacing" textLength="40.1953" x="145.92" y="373.8551">id: int</text><g data-visibility-modifier="PRIVATE_FIELD"><rect fill="none" height="6" style="stroke:#000000;stroke-width:1;" width="6" x="135.92" y="383.8053"/></g><text fill="#000000" font-family="Verdana" font-size="14" lengthAdjust="spacing" textLength="82.0244" x="145.92" y="390.152">numero: str</text><g data-visibility-modifier="PRIVATE_FIELD"><rect fill="none" height="6" style="stroke:#000000;stroke-width:1;" width="6" x="135.92" y="400.1022"/></g><text fill="#000000" font-family="Verdana" font-size="14" lengthAdjust="spacing" textLength="123.7373" x="145.92" y="406.4489">date_creation: str</text><g data-visibility-modifier="PRIVATE_FIELD"><rect fill="none" height="6" style="stroke:#000000;stroke-width:1;" width="6" x="135.92" y="416.3991"/></g><text fill="#000000" font-family="Verdana" font-size="14" lengthAdjust="spacing" textLength="117.7969" x="145.92" y="422.7457">date_validite: str</text><g data-visibility-modifier="PRIVATE_FIELD"><rect fill="none" height="6" style="stroke:#000000;stroke-width:1;" width="6" x="135.92" y="432.6959"/></g><text fill="#000000" font-family="Verdana" font-size="14" lengthAdjust="spacing" textLength="85.6475" x="145.92" y="439.0426">client_id: int</text><g data-visibility-modifier="PRIVATE_FIELD"><rect fill="none" height="6" style="stroke:#000000;stroke-width:1;" width="6" x="135.92" y="448.9928"/></g><text fill="#000000" font-family="Verdana" font-size="14" lengthAdjust="spacing" textLength="85.4766" x="145.92" y="455.3395">chantier: str</text><g data-visibility-modifier="PRIVATE_FIELD"><rect fill="none" height="6" style="stroke:#000000;stroke-width:1;" width="6" x="135.92" y="465.2897"/></g><text fill="#000000" font-family="Verdana" font-size="14" lengthAdjust="spacing" textLength="106.9072" x="145.92" y="471.6364">localisation: str</text><g data-visibility-modifier="PRIVATE_FIELD"><rect fill="none" height="6" style="stroke:#000000;stroke-width:1;" width="6" x="135.92" y="481.5866"/></g><text fill="#000000" font-family="Verdana" font-size="14" lengthAdjust="spacing" textLength="105.5469" x="145.92" y="487.9332">description: str</text><g data-visibility-modifier="PRIVATE_FIELD"><rect fill="none" height="6" style="stroke:#000000;stroke-width:1;" width="6" x="135.92" y="497.8834"/></g><text fill="#000000" font-family="Verdana" font-size="14" lengthAdjust="spacing" textLength="68.9199" x="145.92" y="504.2301">statut: str</text><g data-visibility-modifier="PRIVATE_FIELD"><rect fill="none" height="6" style="stroke:#000000;stroke-width:1;" width="6" x="135.92" y="514.1803"/></g><text fill="#000000" font-family="Verdana" font-size="14" lengthAdjust="spacing" textLength="121.4883" x="145.92" y="520.527">montant_ht: float</text><g data-visibility-modifier="PRIVATE_FIELD"><rect fill="none" height="6" style="stroke:#000000;stroke-width:1;" width="6" x="135.92" y="530.4772"/></g><text fill="#000000" font-family="Verdana" font-size="14" lengthAdjust="spacing" textLength="101.1992" x="145.92" y="536.8239">tva_taux: float</text><g data-visibility-modifier="PRIVATE_FIELD"><rect fill="none" height="6" style="stroke:#000000;stroke-width:1;" width="6" x="135.92" y="546.7741"/></g><text fill="#000000" font-family="Verdana" font-size="14" lengthAdjust="spacing" textLength="129.4795" x="145.92" y="553.1207">montant_tva: float</text><g data-visibility-modifier="PRIVATE_FIELD"><rect fill="none" height="6" style="stroke:#000000;stroke-width:1;" width="6" x="135.92" y="563.0709"/></g><text fill="#000000" font-family="Verdana" font-size="14" lengthAdjust="spacing" textLength="125.8018" x="145.92" y="569.4176">montant_ttc: float</text><g data-visibility-modifier="PRIVATE_FIELD"><rect fill="none" height="6" style="stroke:#000000;stroke-width:1;" width="6" x="135.92" y="579.3678"/></g><text fill="#000000" font-family="Verdana" font-size="14" lengthAdjust="spacing" textLength="179.1016" x="145.92" y="585.7145">conditions_reglement: str</text><g data-visibility-modifier="PRIVATE_FIELD"><rect fill="none" height="6" style="stroke:#000000;stroke-width:1;" width="6" x="135.92" y="595.6647"/></g><text fill="#000000" font-family="Verdana" font-size="14" lengthAdjust="spacing" textLength="137.4639" x="145.92" y="602.0114">delai_execution: str</text><g data-visibility-modifier="PRIVATE_FIELD"><rect fill="none" height="6" style="stroke:#000000;stroke-width:1;" width="6" x="135.92" y="611.9616"/></g><text fill="#000000" font-family="Verdana" font-size="14" lengthAdjust="spacing" textLength="66.541" x="145.92" y="618.3082">notes: str</text><line style="stroke:#000000;stroke-width:1;" x1="128.92" x2="347.8839" y1="625.61" y2="625.61"/><g data-visibility-modifier="PUBLIC_METHOD"><ellipse cx="138.92" cy="639.2584" fill="#FFFFFF" rx="3" ry="3" style="stroke:#000000;stroke-width:1;"/></g><text fill="#000000" font-family="Verdana" font-size="14" lengthAdjust="spacing" textLength="135.1738" x="145.92" y="642.6051">get_devis_list(): list</text><g data-visibility-modifier="PUBLIC_METHOD"><ellipse cx="138.92" cy="655.5553" fill="#FFFFFF" rx="3" ry="3" style="stroke:#000000;stroke-width:1;"/></g><text fill="#000000" font-family="Verdana" font-size="14" lengthAdjust="spacing" textLength="166.1748" x="145.92" y="658.902">get_devis(id): (dict, list)</text><g data-visibility-modifier="PUBLIC_METHOD"><ellipse cx="138.92" cy="671.8522" fill="#FFFFFF" rx="3" ry="3" style="stroke:#000000;stroke-width:1;"/></g><text fill="#000000" font-family="Verdana" font-size="14" lengthAdjust="spacing" textLength="196.9639" x="145.92" y="675.1989">save_devis(data, lignes): int</text><g data-visibility-modifier="PUBLIC_METHOD"><ellipse cx="138.92" cy="688.1491" fill="#FFFFFF" rx="3" ry="3" style="stroke:#000000;stroke-width:1;"/></g><text fill="#000000" font-family="Verdana" font-size="14" lengthAdjust="spacing" textLength="150.5684" x="145.92" y="691.4957">delete_devis(id): void</text><g data-visibility-modifier="PUBLIC_METHOD"><ellipse cx="138.92" cy="704.4459" fill="#FFFFFF" rx="3" ry="3" style="stroke:#000000;stroke-width:1;"/></g><text fill="#000000" font-family="Verdana" font-size="14" lengthAdjust="spacing" textLength="159.8926" x="145.92" y="707.7926">duplicate_devis(id): int</text></g><!--class LigneDevis--><g class="entity" data-qualified-name="LigneDevis" data-source-line="63" id="ent0004"><rect fill="#FFFFFF" height="190.6719" rx="2.5" ry="2.5" style="stroke:#000000;stroke-width:1;" width="385.9971" x="263.41" y="857.28"/><ellipse cx="414.1961" cy="871.28" fill="#FFFFFF" rx="9" ry="9" style="stroke:#000000;stroke-width:1;"/><path d="M417.1649,876.9206 Q416.5868,877.2175 415.9461,877.3581 Q415.3055,877.5144 414.6024,877.5144 Q412.1024,877.5144 410.7743,875.8738 Q409.4618,874.2175 409.4618,871.0925 Q409.4618,867.9675 410.7743,866.3113 Q412.1024,864.655 414.6024,864.655 Q415.3055,864.655 415.9461,864.8113 Q416.6024,864.9675 417.1649,865.2644 L417.1649,867.9831 Q416.5399,867.405 415.9461,867.1394 Q415.3524,866.8581 414.7274,866.8581 Q413.3836,866.8581 412.6961,867.9363 Q412.0086,868.9988 412.0086,871.0925 Q412.0086,873.1863 412.6961,874.2644 Q413.3836,875.3269 414.7274,875.3269 Q415.3524,875.3269 415.9461,875.0613 Q416.5399,874.78 417.1649,874.2019 L417.1649,876.9206 Z " fill="#000000"/><text fill="#000000" font-family="Verdana" font-size="14" lengthAdjust="spacing" textLength="76.9248" x="431.6961" y="876.1267">LigneDevis</text><line style="stroke:#000000;stroke-width:1;" x1="264.41" x2="648.4071" y1="885.28" y2="885.28"/><g data-visibility-modifier="PRIVATE_FIELD"><rect fill="none" height="6" style="stroke:#000000;stroke-width:1;" width="6" x="271.41" y="895.9284"/></g><text fill="#000000" font-family="Verdana" font-size="14" lengthAdjust="spacing" textLength="40.1953" x="281.41" y="902.2751">id: int</text><g data-visibility-modifier="PRIVATE_FIELD"><rect fill="none" height="6" style="stroke:#000000;stroke-width:1;" width="6" x="271.41" y="912.2253"/></g><text fill="#000000" font-family="Verdana" font-size="14" lengthAdjust="spacing" textLength="84.1641" x="281.41" y="918.572">devis_id: int</text><g data-visibility-modifier="PRIVATE_FIELD"><rect fill="none" height="6" style="stroke:#000000;stroke-width:1;" width="6" x="271.41" y="928.5222"/></g><text fill="#000000" font-family="Verdana" font-size="14" lengthAdjust="spacing" textLength="64.9961" x="281.41" y="934.8689">ordre: int</text><g data-visibility-modifier="PRIVATE_FIELD"><rect fill="none" height="6" style="stroke:#000000;stroke-width:1;" width="6" x="271.41" y="944.8191"/></g><text fill="#000000" font-family="Verdana" font-size="14" lengthAdjust="spacing" textLength="361.9971" x="281.41" y="951.1657">type_ligne: str   # item, section, subtotal, comment</text><g data-visibility-modifier="PRIVATE_FIELD"><rect fill="none" height="6" style="stroke:#000000;stroke-width:1;" width="6" x="271.41" y="961.1159"/></g><text fill="#000000" font-family="Verdana" font-size="14" lengthAdjust="spacing" textLength="109.5459" x="281.41" y="967.4626">designation: str</text><g data-visibility-modifier="PRIVATE_FIELD"><rect fill="none" height="6" style="stroke:#000000;stroke-width:1;" width="6" x="271.41" y="977.4128"/></g><text fill="#000000" font-family="Verdana" font-size="14" lengthAdjust="spacing" textLength="63.4443" x="281.41" y="983.7595">unite: str</text><g data-visibility-modifier="PRIVATE_FIELD"><rect fill="none" height="6" style="stroke:#000000;stroke-width:1;" width="6" x="271.41" y="993.7097"/></g><text fill="#000000" font-family="Verdana" font-size="14" lengthAdjust="spacing" textLength="99.3125" x="281.41" y="1000.0564">quantite: float</text><g data-visibility-modifier="PRIVATE_FIELD"><rect fill="none" height="6" style="stroke:#000000;stroke-width:1;" width="6" x="271.41" y="1010.0066"/></g><text fill="#000000" font-family="Verdana" font-size="14" lengthAdjust="spacing" textLength="128.3994" x="281.41" y="1016.3532">prix_unitaire: float</text><g data-visibility-modifier="PRIVATE_FIELD"><rect fill="none" height="6" style="stroke:#000000;stroke-width:1;" width="6" x="271.41" y="1026.3034"/></g><text fill="#000000" font-family="Verdana" font-size="14" lengthAdjust="spacing" textLength="100.126" x="281.41" y="1032.6501">montant: float</text><line style="stroke:#000000;stroke-width:1;" x1="264.41" x2="648.4071" y1="1039.9519" y2="1039.9519"/></g><!--class Article--><g class="entity" data-qualified-name="Article" data-source-line="75" id="ent0005"><rect fill="#FFFFFF" height="190.6719" rx="2.5" ry="2.5" style="stroke:#000000;stroke-width:1;" width="188.9375" x="361.94" y="1190.14"/><ellipse cx="430.2027" cy="1204.14" fill="#FFFFFF" rx="9" ry="9" style="stroke:#000000;stroke-width:1;"/><path d="M433.1714,1209.7806 Q432.5933,1210.0775 431.9527,1210.2181 Q431.3121,1210.3744 430.6089,1210.3744 Q428.1089,1210.3744 426.7808,1208.7337 Q425.4683,1207.0775 425.4683,1203.9525 Q425.4683,1200.8275 426.7808,1199.1712 Q428.1089,1197.515 430.6089,1197.515 Q431.3121,1197.515 431.9527,1197.6712 Q432.6089,1197.8275 433.1714,1198.1244 L433.1714,1200.8431 Q432.5464,1200.265 431.9527,1199.9994 Q431.3589,1199.7181 430.7339,1199.7181 Q429.3902,1199.7181 428.7027,1200.7962 Q428.0152,1201.8587 428.0152,1203.9525 Q428.0152,1206.0462 428.7027,1207.1244 Q429.3902,1208.1869 430.7339,1208.1869 Q431.3589,1208.1869 431.9527,1207.9212 Q432.5464,1207.64 433.1714,1207.0619 L433.1714,1209.7806 Z " fill="#000000"/><text fill="#000000" font-family="Verdana" font-size="14" lengthAdjust="spacing" textLength="44.9121" x="447.7027" y="1208.9867">Article</text><line style="stroke:#000000;stroke-width:1;" x1="362.94" x2="549.8775" y1="1218.14" y2="1218.14"/><g data-visibility-modifier="PRIVATE_FIELD"><rect fill="none" height="6" style="stroke:#000000;stroke-width:1;" width="6" x="369.94" y="1228.7884"/></g><text fill="#000000" font-family="Verdana" font-size="14" lengthAdjust="spacing" textLength="40.1953" x="379.94" y="1235.1351">id: int</text><g data-visibility-modifier="PRIVATE_FIELD"><rect fill="none" height="6" style="stroke:#000000;stroke-width:1;" width="6" x="369.94" y="1245.0853"/></g><text fill="#000000" font-family="Verdana" font-size="14" lengthAdjust="spacing" textLength="93.7959" x="379.94" y="1251.432">categorie: str</text><g data-visibility-modifier="PRIVATE_FIELD"><rect fill="none" height="6" style="stroke:#000000;stroke-width:1;" width="6" x="369.94" y="1261.3822"/></g><text fill="#000000" font-family="Verdana" font-size="14" lengthAdjust="spacing" textLength="109.5459" x="379.94" y="1267.7289">designation: str</text><g data-visibility-modifier="PRIVATE_FIELD"><rect fill="none" height="6" style="stroke:#000000;stroke-width:1;" width="6" x="369.94" y="1277.6791"/></g><text fill="#000000" font-family="Verdana" font-size="14" lengthAdjust="spacing" textLength="63.4443" x="379.94" y="1284.0257">unite: str</text><g data-visibility-modifier="PRIVATE_FIELD"><rect fill="none" height="6" style="stroke:#000000;stroke-width:1;" width="6" x="369.94" y="1293.9759"/></g><text fill="#000000" font-family="Verdana" font-size="14" lengthAdjust="spacing" textLength="128.3994" x="379.94" y="1300.3226">prix_unitaire: float</text><g data-visibility-modifier="PRIVATE_FIELD"><rect fill="none" height="6" style="stroke:#000000;stroke-width:1;" width="6" x="369.94" y="1310.2728"/></g><text fill="#000000" font-family="Verdana" font-size="14" lengthAdjust="spacing" textLength="105.5469" x="379.94" y="1316.6195">description: str</text><line style="stroke:#000000;stroke-width:1;" x1="362.94" x2="549.8775" y1="1323.9212" y2="1323.9212"/><g data-visibility-modifier="PUBLIC_METHOD"><ellipse cx="372.94" cy="1337.5697" fill="#FFFFFF" rx="3" ry="3" style="stroke:#000000;stroke-width:1;"/></g><text fill="#000000" font-family="Verdana" font-size="14" lengthAdjust="spacing" textLength="121.8506" x="379.94" y="1340.9164">get_articles(): list</text><g data-visibility-modifier="PUBLIC_METHOD"><ellipse cx="372.94" cy="1353.8666" fill="#FFFFFF" rx="3" ry="3" style="stroke:#000000;stroke-width:1;"/></g><text fill="#000000" font-family="Verdana" font-size="14" lengthAdjust="spacing" textLength="164.9375" x="379.94" y="1357.2132">save_article(data): void</text><g data-visibility-modifier="PUBLIC_METHOD"><ellipse cx="372.94" cy="1370.1634" fill="#FFFFFF" rx="3" ry="3" style="stroke:#000000;stroke-width:1;"/></g><text fill="#000000" font-family="Verdana" font-size="14" lengthAdjust="spacing" textLength="157.5137" x="379.94" y="1373.5101">delete_article(id): void</text></g><!--class Statistiques--><g class="entity" data-qualified-name="Statistiques" data-source-line="87" id="ent0006"><rect fill="#FFFFFF" height="60.2969" rx="2.5" ry="2.5" style="stroke:#000000;stroke-width:1;" width="134.1885" x="365.31" y="109.78"/><ellipse cx="388.8916" cy="123.78" fill="#FFFFFF" rx="9" ry="9" style="stroke:#000000;stroke-width:1;"/><path d="M391.8603,129.4206 Q391.2822,129.7175 390.6416,129.8581 Q390.001,130.0144 389.2978,130.0144 Q386.7978,130.0144 385.4697,128.3737 Q384.1572,126.7175 384.1572,123.5925 Q384.1572,120.4675 385.4697,118.8112 Q386.7978,117.155 389.2978,117.155 Q390.001,117.155 390.6416,117.3112 Q391.2978,117.4675 391.8603,117.7644 L391.8603,120.4831 Q391.2353,119.905 390.6416,119.6394 Q390.0478,119.3581 389.4228,119.3581 Q388.0791,119.3581 387.3916,120.4362 Q386.7041,121.4987 386.7041,123.5925 Q386.7041,125.6862 387.3916,126.7644 Q388.0791,127.8269 389.4228,127.8269 Q390.0478,127.8269 390.6416,127.5612 Q391.2353,127.28 391.8603,126.7019 L391.8603,129.4206 Z " fill="#000000"/><text fill="#000000" font-family="Verdana" font-size="14" lengthAdjust="spacing" textLength="82.6738" x="403.2431" y="128.6267">Statistiques</text><line style="stroke:#000000;stroke-width:1;" x1="366.31" x2="498.4985" y1="137.78" y2="137.78"/><line style="stroke:#000000;stroke-width:1;" x1="366.31" x2="498.4985" y1="145.78" y2="145.78"/><g data-visibility-modifier="PUBLIC_METHOD"><ellipse cx="376.31" cy="159.4284" fill="#FFFFFF" rx="3" ry="3" style="stroke:#000000;stroke-width:1;"/></g><text fill="#000000" font-family="Verdana" font-size="14" lengthAdjust="spacing" textLength="110.1885" x="383.31" y="162.7751">get_stats(): dict</text></g><!--link Client to Devis--><g class="link" data-entity-1="ent0002" data-entity-2="ent0003" data-link-type="association" data-source-line="91" id="lnk7"><path codeLine="91" d="M238.4,268.27 C238.4,287.68 238.4,308.08 238.4,328.52" fill="none" id="Client-Devis" style="stroke:#000000;stroke-width:1;"/><text fill="#000000" font-family="Verdana" font-size="13" lengthAdjust="spacing" textLength="8.271" x="230.1882" y="287.7693">1</text><text fill="#000000" font-family="Verdana" font-size="13" lengthAdjust="spacing" textLength="23.0356" x="214.9514" y="317.7396">0..*</text></g><!--link Devis to LigneDevis--><g class="link" data-entity-1="ent0003" data-entity-2="ent0004" data-link-type="association" data-source-line="92" id="lnk8"><path codeLine="92" d="M349.29,681.56 C361.93,702.48 373.99,723.99 384.4,745.09 C401.84,780.42 416.97,821.03 428.8,856.84" fill="none" id="Devis-LigneDevis" style="stroke:#000000;stroke-width:1;"/><text fill="#000000" font-family="Verdana" font-size="13" lengthAdjust="spacing" textLength="8.271" x="357.0181" y="688.8494">1</text><text fill="#000000" font-family="Verdana" font-size="13" lengthAdjust="spacing" textLength="23.0356" x="402.9293" y="846.3274">0..*</text></g><!--link LigneDevis to Article--><g class="link" data-entity-1="ent0004" data-entity-2="ent0005" data-link-type="dependency" data-source-line="93" id="lnk9"><path codeLine="93" d="M456.4,1048.43 C456.4,1092.73 456.4,1140.35 456.4,1184.65" fill="none" id="LigneDevis-to-Article" style="stroke:#000000;stroke-width:1;"/><polygon fill="#000000" points="456.4,1189.65,460.4,1180.65,456.4,1184.65,452.4,1180.65,456.4,1189.65" style="stroke:#000000;stroke-width:1;stroke-linejoin:miter;stroke-miterlimit:10;"/><text fill="#000000" font-family="Verdana" font-size="13" lengthAdjust="spacing" textLength="165.0073" x="457.4" y="1156.2069">peut être créé à partir de</text></g><!--link Devis to Entreprise--><g class="link" data-entity-1="ent0003" data-entity-2="ent0001" data-link-type="dependency" data-source-line="94" id="lnk10"><path codeLine="94" d="M174.76,715.57 C171.85,725.53 169.04,735.41 166.4,745.09 C162.3,760.15 159.4586,771.0509 155.6286,786.8409" fill="none" id="Devis-to-Entreprise" style="stroke:#000000;stroke-width:1;"/><polygon fill="#000000" points="154.45,791.7,160.4588,783.8965,155.6286,786.8409,152.6842,782.0107,154.45,791.7" style="stroke:#000000;stroke-width:1;stroke-linejoin:miter;stroke-miterlimit:10;"/><text fill="#000000" font-family="Verdana" font-size="13" lengthAdjust="spacing" textLength="212.9512" x="167.4" y="758.1569">utilise les paramètres par défaut</text></g><?plantuml-src XLN1ZjCm4BtdAqovTA5TiHnpG4B0ZHiV41bxsbfoxAmzgRf2_0j7oc_annZ7JMntK_LcpvkPpBmtuxp10xJ0EisLgIgXkVVicq47dLCUsA-AiIrJicRAu7WsjgsPHpTUlDfhI5Sk7NYV6OvAvtZ7Ntow8MZe3jR0quBjOx91ovLELoT4Le5Hkopwo1la_QbcEsrvh5VRlMqwZeVa9goH2fKrlf6GXKiW5dBJUxO7R62cO_rGCwa4Zf3dHyWnoP4JVhHALhydAhzeHIxtQBp7sypAJLBmfOD6Z1-xmOrmm15amx7iBWRvq9fM7g_iQoLVzNn1ydu3Hkm1GX5NSl4LZielKT6tu6mc0mzfGhaaqPNvoBKYxJ8YulUQFA4uS8CAN7BILb2Wlyu8NZZLbKQF7FkCnDOQf7JD0VEfMfgqoPEmHJEAt9mDeGFQehQGBeuYd43qPNd68lXIGHbuRO9uhqGSeQZ5EeYu6U67f6Lq2586Q6_0FqmypefcIPBOVQULu2KQucQrluTijoIF9USMwsW7qdMSvx6WiLV6s5j6ihSRva44HkZG_qIBN6-8oZQmDsbAKLT2zwOOcUS-p4Um93beXqzDyEFAmO9yasdkxxD39VJI2nbesLkde9YqkrNTh61XJAEwF9PGxkuewmMvjQCJlB2aFsZyAPLwxY4A5pyLjiBFpnzvNnwsrTEARRTizU7nyTqgRdWLHI-HD0rLDXZRxQUPnvfrq2CR_j63Ie_LS1xERFX3lmp27HLUfP3i_rGpsWyTJiH3SERjy9VGySpaSDxn7ly3?></g></svg>