<svg xmlns="http://www.w3.org/2000/svg" xmlns:xlink="http://www.w3.org/1999/xlink" contentStyleType="text/css" data-diagram-type="DESCRIPTION" height="961px" preserveAspectRatio="none" style="width:710px;height:961px;background:#FFFFFF;" version="1.1" viewBox="0 0 710 961" width="710px" zoomAndPan="magnify"><?plantuml 1.2026.7beta1?><defs/><g><!--cluster DevisBTP--><g class="cluster" data-qualified-name="DevisBTP" data-source-line="7" id="ent0003"><rect fill="none" height="776" rx="2.5" ry="2.5" style="stroke:#181818;stroke-width:1;" width="571.11" x="125.01" y="7"/><text fill="#000000" font-family="sans-serif" font-size="14" font-weight="700" lengthAdjust="spacing" textLength="73.8555" x="373.6373" y="21.9951">DevisBTP</text></g><!--entity UC1--><g class="entity" data-qualified-name="DevisBTP.UC1" data-source-line="8" id="ent0004"><ellipse cx="253.8645" cy="60.0009" fill="#F1F1F1" rx="77.0045" ry="17.8009" style="stroke:#181818;stroke-width:0.5;"/><text fill="#000000" font-family="sans-serif" font-size="14" lengthAdjust="spacing" textLength="123.5596" x="192.0847" y="64.6493">Gérer l'entreprise</text></g><!--entity UC2--><g class="entity" data-qualified-name="DevisBTP.UC2" data-source-line="9" id="ent0005"><ellipse cx="585.916" cy="234.9952" fill="#F1F1F1" rx="73.076" ry="17.0152" style="stroke:#181818;stroke-width:0.5;"/><text fill="#000000" font-family="sans-serif" font-size="14" lengthAdjust="spacing" textLength="114.0303" x="528.9009" y="239.6436">Gérer les clients</text></g><!--entity UC3--><g class="entity" data-qualified-name="DevisBTP.UC3" data-source-line="10" id="ent0006"><ellipse cx="253.864" cy="138.0008" fill="#F1F1F1" rx="112.854" ry="24.9708" style="stroke:#181818;stroke-width:0.5;"/><text fill="#000000" font-family="sans-serif" font-size="14" lengthAdjust="spacing" textLength="204.0391" x="151.8445" y="142.6492">Gérer les articles (catalogue)</text></g><!--entity UC4--><g class="entity" data-qualified-name="DevisBTP.UC4" data-source-line="11" id="ent0007"><ellipse cx="253.8561" cy="213.9952" fill="#F1F1F1" rx="68.3261" ry="16.0652" style="stroke:#181818;stroke-width:0.5;"/><text fill="#000000" font-family="sans-serif" font-size="14" lengthAdjust="spacing" textLength="102.1289" x="202.7917" y="218.6437">Créer un devis</text></g><!--entity UC5--><g class="entity" data-qualified-name="DevisBTP.UC5" data-source-line="12" id="ent0008"><ellipse cx="585.9201" cy="328" fill="#F1F1F1" rx="94.2001" ry="21.24" style="stroke:#181818;stroke-width:0.5;"/><text fill="#000000" font-family="sans-serif" font-size="14" lengthAdjust="spacing" textLength="163.1875" x="504.3264" y="332.6485">Ajouter des prestations</text></g><!--entity UC6--><g class="entity" data-qualified-name="DevisBTP.UC6" data-source-line="13" id="ent0009"><ellipse cx="253.8579" cy="283.0036" fill="#F1F1F1" rx="75.6179" ry="17.5236" style="stroke:#181818;stroke-width:0.5;"/><text fill="#000000" font-family="sans-serif" font-size="14" lengthAdjust="spacing" textLength="120.2236" x="193.7461" y="287.652">Modifier un devis</text></g><!--entity UC7--><g class="entity" data-qualified-name="DevisBTP.UC7" data-source-line="14" id="ent0010"><ellipse cx="253.8594" cy="353.9979" fill="#F1F1F1" rx="80.5894" ry="18.5179" style="stroke:#181818;stroke-width:0.5;"/><text fill="#000000" font-family="sans-serif" font-size="14" lengthAdjust="spacing" textLength="132.0635" x="187.8277" y="358.6463">Dupliquer un devis</text></g><!--entity UC8--><g class="entity" data-qualified-name="DevisBTP.UC8" data-source-line="15" id="ent0011"><ellipse cx="253.8556" cy="432.0011" fill="#F1F1F1" rx="110.2056" ry="24.4411" style="stroke:#181818;stroke-width:0.5;"/><text fill="#000000" font-family="sans-serif" font-size="14" lengthAdjust="spacing" textLength="198.3242" x="154.6935" y="436.6496">Changer le statut d'un devis</text></g><!--entity UC9--><g class="entity" data-qualified-name="DevisBTP.UC9" data-source-line="16" id="ent0012"><ellipse cx="253.8608" cy="512.9962" fill="#F1F1F1" rx="96.9808" ry="21.7962" style="stroke:#181818;stroke-width:0.5;"/><text fill="#000000" font-family="sans-serif" font-size="14" lengthAdjust="spacing" textLength="169.3809" x="169.1704" y="517.6446">Générer le PDF du devis</text></g><!--entity UC10--><g class="entity" data-qualified-name="DevisBTP.UC10" data-source-line="17" id="ent0013"><ellipse cx="253.8622" cy="594.0004" fill="#F1F1F1" rx="110.9522" ry="24.5904" style="stroke:#181818;stroke-width:0.5;"/><text fill="#000000" font-family="sans-serif" font-size="14" lengthAdjust="spacing" textLength="199.9375" x="153.8934" y="598.6489">Consulter le tableau de bord</text></g><!--entity UC11--><g class="entity" data-qualified-name="DevisBTP.UC11" data-source-line="18" id="ent0014"><ellipse cx="253.8562" cy="673.0012" fill="#F1F1F1" rx="85.6562" ry="19.5312" style="stroke:#181818;stroke-width:0.5;"/><text fill="#000000" font-family="sans-serif" font-size="14" lengthAdjust="spacing" textLength="143.835" x="181.9387" y="677.6497">Rechercher un devis</text></g><!--entity UC12--><g class="entity" data-qualified-name="DevisBTP.UC12" data-source-line="19" id="ent0015"><ellipse cx="253.8624" cy="747.0005" fill="#F1F1F1" rx="86.3024" ry="19.6605" style="stroke:#181818;stroke-width:0.5;"/><text fill="#000000" font-family="sans-serif" font-size="14" lengthAdjust="spacing" textLength="145.3184" x="181.2032" y="751.6489">Rechercher un client</text></g><!--entity User--><g class="entity" data-qualified-name="User" data-source-line="4" id="ent0001"><ellipse cx="42.0049" cy="453.36" fill="#F1F1F1" rx="8" ry="8" style="stroke:#181818;stroke-width:0.5;"/><path d="M42.0049,461.36 L42.0049,488.36 M29.0049,469.36 L55.0049,469.36 M42.0049,488.36 L29.0049,503.36 M42.0049,488.36 L55.0049,503.36" fill="none" style="stroke:#181818;stroke-width:0.5;"/><text fill="#000000" font-family="sans-serif" font-size="14" lengthAdjust="spacing" textLength="72.0098" x="6" y="517.8551">Utilisateur</text></g><!--entity Client--><g class="entity" data-qualified-name="Client" data-source-line="5" id="ent0002"><ellipse cx="42.0051" cy="342.36" fill="#F1F1F1" rx="8" ry="8" style="stroke:#181818;stroke-width:0.5;"/><path d="M42.0051,350.36 L42.0051,377.36 M29.0051,358.36 L55.0051,358.36 M42.0051,377.36 L29.0051,392.36 M42.0051,377.36 L55.0051,392.36" fill="none" style="stroke:#181818;stroke-width:0.5;"/><text fill="#000000" font-family="sans-serif" font-size="14" lengthAdjust="spacing" textLength="40.5303" x="21.74" y="406.8551">Client</text></g><!--link User to UC1--><g class="link" data-entity-1="ent0001" data-entity-2="ent0004" data-link-type="dependency" data-source-line="22" id="lnk16"><path d="M70.52,444.46 C73.44,439.12 76.05,433.55 78.01,428 C102.78,357.97 67.93,151.77 117.01,96 C132.57,78.33 150.8131,69.9176 173.5931,64.9876" fill="none" id="User-to-UC1" style="stroke:#181818;stroke-width:1;"/><polygon fill="#181818" points="178.48,63.93,168.8376,61.9242,173.5931,64.9876,170.5297,69.7432,178.48,63.93" style="stroke:#181818;stroke-width:1;stroke-linejoin:miter;stroke-miterlimit:10;"/></g><!--link User to UC2--><g class="link" data-entity-1="ent0001" data-entity-2="ent0005" data-link-type="dependency" data-source-line="23" id="lnk17"><path d="M46.67,521.47 C54.56,595.14 75.88,751.76 117.01,784 C204.35,852.47 279.16,852.2 366.72,784 C456.23,714.29 423.37,379.56 491.72,289 C505.24,271.09 522.0243,260.2141 540.8643,251.4741" fill="none" id="User-to-UC2" style="stroke:#181818;stroke-width:1;"/><polygon fill="#181818" points="545.4,249.37,535.5524,249.5289,540.8643,251.4741,538.9191,256.786,545.4,249.37" style="stroke:#181818;stroke-width:1;stroke-linejoin:miter;stroke-miterlimit:10;"/></g><!--link User to UC3--><g class="link" data-entity-1="ent0001" data-entity-2="ent0006" data-link-type="dependency" data-source-line="24" id="lnk18"><path d="M70.32,444.39 C73.27,439.05 75.94,433.51 78.01,428 C117.25,323.55 43.34,263.8 117.01,180 C128.26,167.21 138.6521,160.0777 154.6421,153.8377" fill="none" id="User-to-UC3" style="stroke:#181818;stroke-width:1;"/><polygon fill="#181818" points="159.3,152.02,149.4616,151.5656,154.6421,153.8377,152.37,159.0182,159.3,152.02" style="stroke:#181818;stroke-width:1;stroke-linejoin:miter;stroke-miterlimit:10;"/></g><!--link User to UC4--><g class="link" data-entity-1="ent0001" data-entity-2="ent0007" data-link-type="dependency" data-source-line="25" id="lnk19"><path d="M69.83,444.57 C72.89,439.16 75.73,433.55 78.01,428 C109.14,352.3 60.06,306.8 117.01,248 C134.94,229.49 156.3804,221.3162 181.1404,217.1162" fill="none" id="User-to-UC4" style="stroke:#181818;stroke-width:1;"/><polygon fill="#181818" points="186.07,216.28,176.5278,213.8415,181.1404,217.1162,177.8657,221.7288,186.07,216.28" style="stroke:#181818;stroke-width:1;stroke-linejoin:miter;stroke-miterlimit:10;"/></g><!--link User to UC5--><g class="link" data-entity-1="ent0001" data-entity-2="ent0008" data-link-type="dependency" data-source-line="26" id="lnk20"><path d="M43.93,521.62 C46.85,606.47 58.91,804.92 108.01,846 C228.57,946.89 338.37,943.46 461.72,846 C542.23,782.4 575.335,444.5428 582.825,354.6028" fill="none" id="User-to-UC5" style="stroke:#181818;stroke-width:1;"/><polygon fill="#181818" points="583.24,349.62,578.5069,358.257,582.825,354.6028,586.4793,358.9209,583.24,349.62" style="stroke:#181818;stroke-width:1;stroke-linejoin:miter;stroke-miterlimit:10;"/></g><!--link User to UC6--><g class="link" data-entity-1="ent0001" data-entity-2="ent0009" data-link-type="dependency" data-source-line="27" id="lnk21"><path d="M68.99,444.57 C72.22,439.12 75.33,433.5 78.01,428 C100.75,381.38 78.74,353.02 117.01,318 C134.53,301.97 153.5203,294.1243 176.3703,289.2443" fill="none" id="User-to-UC6" style="stroke:#181818;stroke-width:1;"/><polygon fill="#181818" points="181.26,288.2,171.6231,286.1679,176.3703,289.2443,173.2939,293.9915,181.26,288.2" style="stroke:#181818;stroke-width:1;stroke-linejoin:miter;stroke-miterlimit:10;"/></g><!--link User to UC7--><g class="link" data-entity-1="ent0001" data-entity-2="ent0010" data-link-type="dependency" data-source-line="28" id="lnk22"><path d="M69.89,444.43 C86,422.32 105.52,397.51 117.01,390 C136.82,377.06 156.2536,369.8981 178.8036,364.5781" fill="none" id="User-to-UC7" style="stroke:#181818;stroke-width:1;"/><polygon fill="#181818" points="183.67,363.43,173.992,361.6034,178.8036,364.5781,175.8289,369.3897,183.67,363.43" style="stroke:#181818;stroke-width:1;stroke-linejoin:miter;stroke-miterlimit:10;"/></g><!--link User to UC8--><g class="link" data-entity-1="ent0001" data-entity-2="ent0011" data-link-type="dependency" data-source-line="29" id="lnk23"><path d="M78.42,474.26 C88.02,471.9 98.41,469.34 108.01,467 C130.76,461.46 150.6598,456.634 173.1798,451.194" fill="none" id="User-to-UC8" style="stroke:#181818;stroke-width:1;"/><polygon fill="#181818" points="178.04,450.02,168.3524,448.2451,173.1798,451.194,170.2309,456.0214,178.04,450.02" style="stroke:#181818;stroke-width:1;stroke-linejoin:miter;stroke-miterlimit:10;"/></g><!--link User to UC9--><g class="link" data-entity-1="ent0001" data-entity-2="ent0012" data-link-type="dependency" data-source-line="30" id="lnk24"><path d="M78.13,488.03 C103.57,491.66 134.0703,496.0227 166.4003,500.6427" fill="none" id="User-to-UC9" style="stroke:#181818;stroke-width:1;"/><polygon fill="#181818" points="171.35,501.35,163.0064,496.117,166.4003,500.6427,161.8747,504.0366,171.35,501.35" style="stroke:#181818;stroke-width:1;stroke-linejoin:miter;stroke-miterlimit:10;"/></g><!--link User to UC10--><g class="link" data-entity-1="ent0001" data-entity-2="ent0013" data-link-type="dependency" data-source-line="31" id="lnk25"><path d="M77.61,521.34 C89.24,532.47 102.87,543.81 117.01,552 C134.74,562.28 150.4794,568.803 170.1094,574.963" fill="none" id="User-to-UC10" style="stroke:#181818;stroke-width:1;"/><polygon fill="#181818" points="174.88,576.46,167.4905,569.9488,170.1094,574.963,165.0952,577.5818,174.88,576.46" style="stroke:#181818;stroke-width:1;stroke-linejoin:miter;stroke-miterlimit:10;"/></g><!--link User to UC11--><g class="link" data-entity-1="ent0001" data-entity-2="ent0014" data-link-type="dependency" data-source-line="32" id="lnk26"><path d="M51.85,521.34 C61.86,556.21 81.6,606.59 117.01,636 C133.93,650.06 150.9066,657.5683 172.0866,662.9983" fill="none" id="User-to-UC11" style="stroke:#181818;stroke-width:1;"/><polygon fill="#181818" points="176.93,664.24,169.2053,658.1302,172.0866,662.9983,167.2186,665.8796,176.93,664.24" style="stroke:#181818;stroke-width:1;stroke-linejoin:miter;stroke-miterlimit:10;"/></g><!--link User to UC12--><g class="link" data-entity-1="ent0001" data-entity-2="ent0015" data-link-type="dependency" data-source-line="33" id="lnk27"><path d="M44.73,521.35 C49.09,571.78 64.32,659.85 117.01,710 C132.5,724.75 148.4453,732.4651 169.0753,737.9051" fill="none" id="User-to-UC12" style="stroke:#181818;stroke-width:1;"/><polygon fill="#181818" points="173.91,739.18,166.2274,733.0174,169.0753,737.9051,164.1876,740.753,173.91,739.18" style="stroke:#181818;stroke-width:1;stroke-linejoin:miter;stroke-miterlimit:10;"/></g><!--link UC4 to UC2--><g class="link" data-entity-1="ent0007" data-entity-2="ent0005" data-link-type="dependency" data-source-line="35" id="lnk28"><path d="M320.47,218.18 C376.68,221.75 452.4301,226.5722 509.8901,230.2322" fill="none" id="UC4-to-UC2" style="stroke:#181818;stroke-width:1;stroke-dasharray:7,7;"/><polygon fill="#181818" points="514.88,230.55,506.1525,225.986,509.8901,230.2322,505.6439,233.9698,514.88,230.55" style="stroke:#181818;stroke-width:1;stroke-linejoin:miter;stroke-miterlimit:10;"/><text fill="#000000" font-family="sans-serif" font-size="13" lengthAdjust="spacing" textLength="63.0068" x="397.72" y="220.0669">«include»</text></g><!--link UC4 to UC5--><g class="link" data-entity-1="ent0007" data-entity-2="ent0008" data-link-type="dependency" data-source-line="36" id="lnk29"><path d="M298.33,226.6 C319.12,232.78 344.3,240.49 366.72,248 C425.83,267.81 488.3867,291.0622 532.4167,307.8122" fill="none" id="UC4-to-UC5" style="stroke:#181818;stroke-width:1;stroke-dasharray:7,7;"/><polygon fill="#181818" points="537.09,309.59,530.1004,302.6513,532.4167,307.8122,527.2559,310.1285,537.09,309.59" style="stroke:#181818;stroke-width:1;stroke-linejoin:miter;stroke-miterlimit:10;"/><text fill="#000000" font-family="sans-serif" font-size="13" lengthAdjust="spacing" textLength="63.0068" x="397.72" y="257.0669">«include»</text></g><!--link UC6 to UC5--><g class="link" data-entity-1="ent0009" data-entity-2="ent0008" data-link-type="dependency" data-source-line="37" id="lnk30"><path d="M302.59,296.72 C322.57,302.78 345.93,310.27 366.72,318 C380.34,323.07 382.49,328.05 396.72,331 C430.15,337.94 462.6553,338.9408 495.3353,337.4308" fill="none" id="UC6-to-UC5" style="stroke:#181818;stroke-width:1;stroke-dasharray:7,7;"/><polygon fill="#181818" points="500.33,337.2,491.155,333.6197,495.3353,337.4308,491.5242,341.6111,500.33,337.2" style="stroke:#181818;stroke-width:1;stroke-linejoin:miter;stroke-miterlimit:10;"/><text fill="#000000" font-family="sans-serif" font-size="13" lengthAdjust="spacing" textLength="63.0068" x="397.72" y="327.0669">«include»</text></g><?plantuml-src TPBRJW8n48Rl-nIJlK4l89mFXf0eHAzCYC83bEwmLEhkEcrDZF61U0vUp7PXjSlXead_pZSp_xHLk3PWCY2PR0p4ab0OcQLCRsMQS-Bla7EnvGc-cY-5uCCyJHGoneN92AAbaKfgRj1I15p3KYELiQcIc9hY-B1bxAy0H3FybFfXCO_Wcm5OZO9hT_oqtn4Ig9hZ2NEI6W-5fwrB66eGHMrzfDfNA4v62h-v4TnmbIKMRuyfdJ1bIlkTIx4fnDxW4Uc6oFrRPerZObSj9zI6-pihqLw8FcUnNClpUlqGcjbSoGzxJWqgnZRkuefXm7Uqxhbg9_pmPFQq71_ciqU8RGKULOex_rQP0spuIY7tDAmoYilhRuO9BoWsI7wTccwrhdFY_qSuiCr-6FCV1khrIV70WMY7eXEARYXweUY7OX2AOIX6bQRDYgfuS0wPwmUDHk48xc0ybgbGDiR998ZqpYBzov5V?></g></svg>